<svg width="497" height="1029" viewBox="0 0 497 1029" fill="none" xmlns="http://www.w3.org/2000/svg">
<rect width="26" height="26" rx="13" transform="matrix(-1 0 0 1 377 297)" fill="#41C6FF"/>
<g filter="url(#filter0_f_75_240)">
<rect width="26" height="26" rx="13" transform="matrix(-1 0 0 1 377 297)" fill="#41C6FF" fill-opacity="0.75"/>
</g>
<rect width="26" height="26" rx="13" transform="matrix(-1 0 0 1 482 806)" fill="#41C6FF"/>
<g filter="url(#filter1_f_75_240)">
<rect width="26" height="26" rx="13" transform="matrix(-1 0 0 1 482 806)" fill="#41C6FF" fill-opacity="0.75"/>
</g>
<rect width="26" height="26" rx="13" transform="matrix(-1 0 0 1 186 988)" fill="#41C6FF"/>
<g filter="url(#filter2_f_75_240)">
<rect width="26" height="26" rx="13" transform="matrix(-1 0 0 1 186 988)" fill="#41C6FF" fill-opacity="0.75"/>
</g>
<rect width="26" height="26" rx="13" transform="matrix(-1 0 0 1 41 878)" fill="#41C6FF"/>
<g filter="url(#filter3_f_75_240)">
<rect width="26" height="26" rx="13" transform="matrix(-1 0 0 1 41 878)" fill="#41C6FF" fill-opacity="0.75"/>
</g>
<path d="M172.5 -1V553.28C172.5 583.514 160.489 612.511 139.11 633.89L61.3898 711.61C40.0107 732.989 28 761.986 28 792.22L28 858M272.5 -1V697.78C272.5 728.014 260.489 757.011 239.11 778.39L205.89 811.61C184.511 832.989 172.5 861.986 172.5 892.22V979M365 352V472.78C365 503.014 377.011 532.011 398.39 553.39L435.61 590.61C456.989 611.989 469 640.986 469 671.22V790M365 255.5V-1" stroke="white"/>
<defs>
<filter id="filter0_f_75_240" x="336" y="282" width="56" height="56" filterUnits="userSpaceOnUse" color-interpolation-filters="sRGB">
<feFlood flood-opacity="0" result="BackgroundImageFix"/>
<feBlend mode="normal" in="SourceGraphic" in2="BackgroundImageFix" result="shape"/>
<feGaussianBlur stdDeviation="7.5" result="effect1_foregroundBlur_75_240"/>
</filter>
<filter id="filter1_f_75_240" x="441" y="791" width="56" height="56" filterUnits="userSpaceOnUse" color-interpolation-filters="sRGB">
<feFlood flood-opacity="0" result="BackgroundImageFix"/>
<feBlend mode="normal" in="SourceGraphic" in2="BackgroundImageFix" result="shape"/>
<feGaussianBlur stdDeviation="7.5" result="effect1_foregroundBlur_75_240"/>
</filter>
<filter id="filter2_f_75_240" x="145" y="973" width="56" height="56" filterUnits="userSpaceOnUse" color-interpolation-filters="sRGB">
<feFlood flood-opacity="0" result="BackgroundImageFix"/>
<feBlend mode="normal" in="SourceGraphic" in2="BackgroundImageFix" result="shape"/>
<feGaussianBlur stdDeviation="7.5" result="effect1_foregroundBlur_75_240"/>
</filter>
<filter id="filter3_f_75_240" x="0" y="863" width="56" height="56" filterUnits="userSpaceOnUse" color-interpolation-filters="sRGB">
<feFlood flood-opacity="0" result="BackgroundImageFix"/>
<feBlend mode="normal" in="SourceGraphic" in2="BackgroundImageFix" result="shape"/>
<feGaussianBlur stdDeviation="7.5" result="effect1_foregroundBlur_75_240"/>
</filter>
</defs>
</svg>
