<svg width="640" height="109" viewBox="0 0 640 109" fill="none" xmlns="http://www.w3.org/2000/svg">
<path d="M47.936 63.04H3.2V51.2H47.936V63.04ZM3.2 76.992L12.48 67.712H47.936V79.552H18.048L14.976 82.624V96H3.2V76.992ZM89.8435 51.2L99.1875 60.544V96H87.3475V85.248L93.0435 79.552H69.2355L66.1635 82.624V96H54.3875V76.992L63.6675 67.712H87.3475V66.112L84.2755 63.04H54.3875V51.2H89.8435ZM120.423 84.224H150.375V96H114.855L105.575 86.72V51.2H117.351V81.152L120.423 84.224ZM171.611 84.224H201.563V96H166.043L156.763 86.72V51.2H168.539V81.152L171.611 84.224ZM252.75 63.04H207.95V51.2H252.75V63.04ZM252.75 79.552H207.95V67.712H252.75V79.552ZM252.75 96H207.95V84.224H252.75V96ZM292.034 51.264H303.874V86.72L294.594 96H284.866L275.586 86.72V66.176L273.282 63.808L270.914 66.176V96H259.138V60.544L268.418 51.264H278.082L287.426 60.544L287.362 81.152L289.729 83.456L292.034 81.152V51.264ZM379.999 63.04H335.263V51.2H379.999V63.04ZM335.263 76.992L344.543 67.712H379.999V79.552H350.111L347.039 82.624V96H335.263V76.992ZM419.41 51.2H431.186V86.72L421.906 96H395.73L386.45 86.72V51.2H398.226V81.152L401.298 84.224H416.338L419.41 81.088V51.2ZM437.638 51.2H482.438V63.04H465.926V96H454.086V68.736L459.782 63.04H437.638V51.2ZM521.785 51.2H533.561V86.72L524.281 96H498.105L488.825 86.72V51.2H500.601V81.152L503.673 84.224H518.713L521.785 81.088V51.2ZM575.469 51.2L584.813 60.544V70.272L575.469 79.552H540.013V67.712H569.901L572.205 65.408L569.901 63.04H540.013V51.2H575.469ZM584.813 96H540.013V84.224H584.813V96ZM636 63.04H591.2V51.2H636V63.04ZM636 79.552H591.2V67.712H636V79.552ZM636 96H591.2V84.224H636V96Z" fill="white"/>
<path d="M16.768 12.76V15.736H10.848V35H7.2V15.736H1.248V12.76H16.768ZM30.6065 35.224C28.5372 35.224 26.6278 34.744 24.8785 33.784C23.1505 32.8027 21.7745 31.448 20.7505 29.72C19.7478 27.9707 19.2465 26.008 19.2465 23.832C19.2465 21.656 19.7478 19.704 20.7505 17.976C21.7745 16.248 23.1505 14.904 24.8785 13.944C26.6278 12.9627 28.5372 12.472 30.6065 12.472C32.6972 12.472 34.6065 12.9627 36.3345 13.944C38.0838 14.904 39.4598 16.248 40.4625 17.976C41.4652 19.704 41.9665 21.656 41.9665 23.832C41.9665 26.008 41.4652 27.9707 40.4625 29.72C39.4598 31.448 38.0838 32.8027 36.3345 33.784C34.6065 34.744 32.6972 35.224 30.6065 35.224ZM30.6065 32.056C32.0785 32.056 33.3905 31.7253 34.5425 31.064C35.6945 30.3813 36.5905 29.4213 37.2305 28.184C37.8918 26.9253 38.2225 25.4747 38.2225 23.832C38.2225 22.1893 37.8918 20.7493 37.2305 19.512C36.5905 18.2747 35.6945 17.3253 34.5425 16.664C33.3905 16.0027 32.0785 15.672 30.6065 15.672C29.1345 15.672 27.8225 16.0027 26.6705 16.664C25.5185 17.3253 24.6118 18.2747 23.9505 19.512C23.3105 20.7493 22.9905 22.1893 22.9905 23.832C22.9905 25.4747 23.3105 26.9253 23.9505 28.184C24.6118 29.4213 25.5185 30.3813 26.6705 31.064C27.8225 31.7253 29.1345 32.056 30.6065 32.056ZM59.9243 12.76V15.736H54.0043V35H50.3563V15.736H44.4043V12.76H59.9243ZM77.0268 30.456H67.7148L66.1148 35H62.3068L70.2748 12.728H74.4988L82.4668 35H78.6268L77.0268 30.456ZM76.0028 27.48L72.3868 17.144L68.7388 27.48H76.0028ZM89.5793 32.056H97.0993V35H85.9313V12.76H89.5793V32.056ZM129.11 12.76L122.518 35H118.39L113.718 18.168L108.758 35L104.662 35.032L98.358 12.76H102.23L106.838 30.872L111.83 12.76H115.926L120.566 30.776L125.206 12.76H129.11ZM145.527 30.456H136.215L134.615 35H130.807L138.775 12.728H142.999L150.967 35H147.127L145.527 30.456ZM144.503 27.48L140.887 17.144L137.239 27.48H144.503ZM165.983 35L160.863 26.104H158.079V35H154.431V12.76H162.111C163.818 12.76 165.258 13.0587 166.431 13.656C167.626 14.2533 168.511 15.0533 169.087 16.056C169.685 17.0587 169.983 18.1787 169.983 19.416C169.983 20.8667 169.557 22.1893 168.703 23.384C167.871 24.5573 166.581 25.3573 164.831 25.784L170.335 35H165.983ZM158.079 23.192H162.111C163.477 23.192 164.501 22.8507 165.183 22.168C165.887 21.4853 166.239 20.568 166.239 19.416C166.239 18.264 165.898 17.368 165.215 16.728C164.533 16.0667 163.498 15.736 162.111 15.736H158.079V23.192Z" fill="#959595"/>
</svg>
